# xmcd CD database file
#
# Track frame offsets:
#	150
#	15850
#	32297
#
# Disc length: 629 seconds
#
# Revision: 0
# Processed by: cddbd v1.5.1PL0 Copyright (c) Steve Scherf et al.
# Submitted via: CDex 1.51
#
DISCID=0d027303
DTITLE=RAMJET PULLEY - CHANGE THE WORLD
DYEAR=2002
DGENRE=JPop
TTITLE0=CHANGE THE WORLD
TTITLE1=cloudy smile
TTITLE2=find my way
EXTD=YEAR: 2002
EXTT0=
EXTT1=
EXTT2=
PLAYORDER=
